HIERARCHY
ROOT Hips
{
	OFFSET 0.00 0.00 0.00
	CHANNELS 6 Xposition Yposition Zposition Xrotation Yrotation Zrotation
	JOINT Spine
	{
		OFFSET -7.057811 -23.982097 1.782175
		CHANNELS 3 Xrotation Yrotation Zrotation
		JOINT Spine1
		{
			OFFSET -7.057811 -23.982097 1.782175
			CHANNELS 3 Xrotation Yrotation Zrotation
			JOINT Neck
			{
				OFFSET 0.000000 0.000000 0.000000
				CHANNELS 3 Xrotation Yrotation Zrotation
				JOINT Head
				{
					OFFSET -10.048860 -9.269406 27.706734
					CHANNELS 3 Xrotation Yrotation Zrotation
					End Site
					{
						OFFSET 0.000000 15.000000 0.000000
					}
				}
			}
			JOINT LeftShoulder
			{
				OFFSET 16.389944 -0.221666 7.758349
				CHANNELS 3 Xrotation Yrotation Zrotation
				JOINT LeftArm
				{
					OFFSET 19.415140 1.845710 -4.776580
					CHANNELS 3 Xrotation Yrotation Zrotation
					JOINT LeftForeArm
					{
						OFFSET 8.388989 10.240831 -7.379467
						CHANNELS 3 Xrotation Yrotation Zrotation
						JOINT LeftHand
						{
							OFFSET 0.279718 0.912235 -0.008746
							CHANNELS 3 Xrotation Yrotation Zrotation
							End Site
							{
								OFFSET -5.000000 0.000000 0.000000
							}
						}
					}
				}
			}
			JOINT RightShoulder
			{
				OFFSET -16.389944 0.221666 -7.758349
				CHANNELS 3 Xrotation Yrotation Zrotation
				JOINT RightArm
				{
					OFFSET -18.128180 11.423306 -1.449747
					CHANNELS 3 Xrotation Yrotation Zrotation
					JOINT RightForeArm
					{
						OFFSET -20.004914 2.614081 3.996847
						CHANNELS 3 Xrotation Yrotation Zrotation
						JOINT RightHand
						{
							OFFSET -1.076810 -1.937465 1.799606
							CHANNELS 3 Xrotation Yrotation Zrotation
							End Site
							{
								OFFSET 5.000000 0.000000 0.000000
							}
						}
					}
				}
			}
		}
	}
	JOINT LeftUpLeg
	{
		OFFSET 9.116570 -1.468459 2.071460
		CHANNELS 3 Xrotation Yrotation Zrotation
		JOINT LeftLeg
		{
			OFFSET -4.911242 41.173894 10.847150
			CHANNELS 3 Xrotation Yrotation Zrotation
			JOINT LeftFoot
			{
				OFFSET 15.653789 19.534050 -38.755391
				CHANNELS 3 Xrotation Yrotation Zrotation
				End Site
				{
					OFFSET 0.000000 -5.000000 5.000000
				}
			}
		}
	}
	JOINT RightUpLeg
	{
		OFFSET -9.116570 1.468459 -2.071460
		CHANNELS 3 Xrotation Yrotation Zrotation
		JOINT RightLeg
		{
			OFFSET -6.546898 32.153396 5.738837
			CHANNELS 3 Xrotation Yrotation Zrotation
			JOINT RightFoot
			{
				OFFSET 8.445788 37.718200 -13.054394
				CHANNELS 3 Xrotation Yrotation Zrotation
				End Site
				{
					OFFSET 0.000000 -5.000000 5.000000
				}
			}
		}
	}
}
MOTION
Frames: 19
Frame Time: 0.016667
-0.045629 -0.485291 0.058333 0.000000 0.000000 0.000000 150.314914 -28.427076 -162.851322 150.314914 -28.427076 -162.851322 0.000000 0.000000 0.000000 91.866669 -22.731695 -94.448111 81.081882 61.038886 85.036721 -2.782044 93.293719 40.177220 -10.262948 137.696446 9.356837 25.726361 -45.618216 -26.213145 -98.918118 -118.961114 -94.963279 -22.108775 -128.204529 -27.300535 -20.553416 -101.499957 -61.515163 115.197442 -49.023796 -112.228112 -114.354843 104.338212 96.600101 3.429435 76.244050 13.754912 -38.369393 -170.291069 -7.714237 65.645157 -75.661788 -83.399899 50.012389 2.472134 2.946698 -5.020291 -123.135403 -7.664416
-0.042918 -0.472100 0.051536 0.000000 0.000000 0.000000 151.092630 -29.609361 -162.577560 151.092630 -29.609361 -162.577560 0.000000 0.000000 0.000000 91.535553 -22.265542 -93.746040 80.074170 61.438298 84.558575 -4.741176 95.574239 40.358104 -10.071717 140.824865 8.235420 25.598123 -48.739279 -28.638038 -99.925830 -118.561702 -95.441425 -22.651124 -127.742259 -28.329552 -20.588580 -101.596141 -61.354109 115.958713 -46.075435 -115.121864 -112.507127 104.454774 96.096746 3.591628 75.178040 13.343896 -39.832815 -170.888931 -7.619380 67.492873 -75.545226 -83.903254 49.022980 2.356113 2.712097 -4.120621 -118.598240 -7.527749
-0.034798 -0.446819 0.028681 0.000000 0.000000 0.000000 152.028735 -31.122807 -162.221653 152.028735 -31.122807 -162.221653 0.000000 0.000000 0.000000 91.216274 -20.507834 -93.248718 79.647212 62.505757 84.568913 -7.101043 98.207464 40.816979 -10.112294 148.172075 6.316988 27.062132 -52.944213 -34.082482 -100.352788 -117.494243 -95.431087 -22.538468 -125.649085 -30.054467 -15.977973 -98.518967 -62.384277 120.356241 -41.468817 -123.532688 -110.169382 104.519069 95.433984 3.701229 74.022169 12.730871 -44.418771 -171.434533 -8.395901 69.830618 -75.480931 -84.566016 46.554363 1.957121 2.066206 -2.829451 -111.148129 -7.280899
-0.024763 -0.406944 -0.014317 0.000000 0.000000 0.000000 153.369970 -32.822919 -162.077440 153.369970 -32.822919 -162.077440 0.000000 0.000000 0.000000 90.336747 -20.720681 -90.890141 78.638910 63.171711 84.197467 -7.194362 98.382235 40.585400 -9.128572 158.648994 3.594228 27.455104 -57.230611 -38.909218 -101.361090 -116.828289 -95.802533 -16.489790 -116.842064 -30.325579 12.841195 -83.706513 -64.181600 118.359433 -34.718089 -127.919321 -108.260688 103.862921 94.655302 5.237737 67.694125 12.595955 -50.219762 -171.262878 -10.458362 71.739312 -76.137079 -85.344698 42.636624 0.120009 0.110496 -1.999351 -106.342920 -6.789097
-0.009345 -0.367877 -0.076423 0.000000 0.000000 0.000000 155.956444 -35.446307 -162.380251 155.956444 -35.446307 -162.380251 0.000000 0.000000 0.000000 90.428793 -20.764372 -91.130798 78.744797 64.409478 84.555722 -7.069940 98.229127 40.615646 -7.754882 170.023008 1.372313 25.491984 -63.150458 -43.285862 -101.255203 -115.590522 -95.444278 -7.831184 -103.046860 -30.690199 34.729461 -73.245798 -66.525267 117.894237 -31.483759 -130.838848 -108.541105 102.687867 94.318181 6.863942 62.615324 13.082136 -56.572403 -170.549565 -14.153499 71.458895 -77.312133 -85.681819 39.564859 -2.615715 -2.161683 -1.838458 -107.482670 -5.818913
0.007083 -0.336864 -0.143450 0.000000 0.000000 0.000000 158.846699 -38.592796 -162.838885 158.846699 -38.592796 -162.838885 0.000000 0.000000 0.000000 90.725861 -21.177546 -91.872992 78.793759 65.706621 84.889839 -6.675327 97.563575 41.393643 -5.222653 -159.727552 -1.933689 22.870192 -69.350245 -48.220332 -101.206241 -114.293379 -95.110161 0.149447 -89.758386 -31.738230 50.031583 -64.387131 -68.109204 115.548422 -28.569804 -131.277922 -110.508125 100.997397 94.157495 8.579216 58.717673 13.944612 -60.797282 -169.891205 -17.691061 69.491875 -79.002603 -85.842505 35.977640 -6.512738 -4.737541 -2.922491 -125.592260 -4.079893
0.021377 -0.318770 -0.186264 0.000000 0.000000 0.000000 161.739860 -42.441469 -163.210333 161.739860 -42.441469 -163.210333 0.000000 0.000000 0.000000 91.901219 -21.224931 -94.885240 79.679228 66.760710 85.528666 -3.086708 93.293155 43.142781 -1.746807 -105.197951 -6.405399 23.176126 -72.944544 -54.373946 -100.320772 -113.239290 -94.471334 4.227983 -83.680470 -33.724352 52.120591 -64.581779 -69.711750 115.689380 -27.307330 -132.975131 -113.712678 99.297938 94.113115 9.480053 57.231615 14.543292 -61.212941 -170.037659 -17.727830 66.287322 -80.702062 -85.886885 33.112628 -10.200973 -6.693715 -4.510368 -155.437198 -2.064841
0.033515 -0.308924 -0.203385 0.000000 0.000000 0.000000 162.868509 -43.760258 -163.554285 162.868509 -43.760258 -163.554285 0.000000 0.000000 0.000000 92.838207 -20.892875 -97.399969 80.592764 67.476618 86.069637 2.864028 87.146811 45.108808 9.256270 -53.417052 -12.384430 33.218661 -70.117074 -61.089070 -99.407236 -112.523382 -93.930363 5.367337 -82.746823 -36.434799 56.429001 -63.488001 -71.682010 115.844539 -25.672733 -135.219476 -117.615114 97.948194 94.177346 9.893817 56.651229 14.843951 -59.831785 -170.566975 -15.951192 62.384886 -82.051806 -85.822654 28.906505 -13.815446 -7.732656 -7.876783 178.746791 0.173407
0.046998 -0.294831 -0.199566 0.000000 0.000000 0.000000 164.385856 -45.750833 -163.992159 164.385856 -45.750833 -163.992159 0.000000 0.000000 0.000000 94.021409 -20.476427 -100.662166 82.317290 68.064740 86.890457 11.113632 79.602862 46.953218 24.608192 -37.427642 -19.316806 44.851518 -66.608710 -66.500310 -97.682710 -111.935260 -93.109543 5.235509 -83.577203 -39.145392 60.037004 -65.116844 -75.029816 117.564550 -25.123174 -138.065728 -121.227440 97.093075 94.314295 10.178480 56.003183 14.907087 -57.297202 -171.238348 -13.498188 58.772560 -82.906925 -85.685705 25.852049 -15.996741 -7.908339 -10.936338 168.329395 2.285582
0.062124 -0.277164 -0.177181 0.000000 0.000000 0.000000 163.803174 -43.797975 -164.435996 163.803174 -43.797975 -164.435996 0.000000 0.000000 0.000000 95.273626 -19.654009 -104.490763 82.802719 68.321266 87.126216 24.389900 68.220483 48.612497 39.723836 -33.018735 -28.368668 58.398558 -63.923558 -73.243542 -97.197281 -111.678734 -92.873784 2.983376 -86.638808 -41.585150 63.743374 -66.166190 -77.706618 118.156575 -24.812487 -139.179153 -125.945216 96.206542 94.508612 10.212573 55.664364 14.775005 -53.085802 -171.797980 -10.861618 54.054784 -83.793458 -85.491388 22.499730 -18.112037 -7.715477 -13.719220 162.500924 4.401338
0.078266 -0.257699 -0.150426 0.000000 0.000000 0.000000 163.213320 -42.055350 -164.775791 163.213320 -42.055350 -164.775791 0.000000 0.000000 0.000000 96.758751 -18.163708 -109.861206 84.413439 68.787896 87.825905 34.039564 60.748494 50.338221 48.860290 -36.394915 -40.157767 71.555708 -64.590389 -80.997291 -95.586561 -111.212104 -92.174095 0.267968 -89.721414 -43.886997 69.006467 -66.984958 -80.741951 119.873209 -24.723670 -141.283888 -131.743221 95.447584 94.863979 9.716127 56.234323 14.364787 -47.106460 -172.607322 -7.950300 48.256779 -84.552416 -85.136021 18.998255 -21.441533 -7.700554 -16.264714 159.483265 6.230804
0.091999 -0.240393 -0.119938 0.000000 0.000000 0.000000 162.894949 -41.116357 -164.964651 162.894949 -41.116357 -164.964651 0.000000 0.000000 0.000000 99.526616 -17.147434 -118.542010 86.057423 69.464171 88.521113 42.775277 54.815205 52.691980 55.801669 -38.319780 -49.309160 78.376637 -64.194148 -84.319871 -93.942577 -110.535829 -91.478887 0.757825 -89.291703 -46.935024 71.948658 -68.472115 -82.674074 119.611259 -23.855568 -142.114333 -141.017312 94.466609 95.513339 8.935014 55.931977 13.088477 -40.129430 -174.954045 -4.256702 38.982688 -85.533391 -84.486661 14.956459 -27.251696 -7.834334 -18.806057 158.853029 7.504169
0.099852 -0.228765 -0.099931 0.000000 0.000000 0.000000 164.216055 -42.957050 -165.254337 164.216055 -42.957050 -165.254337 0.000000 0.000000 0.000000 102.889533 -16.922040 -126.948847 87.073043 70.325197 88.952655 45.717282 55.084691 55.755099 65.882835 -43.346739 -64.625389 97.659053 -64.338073 -93.696725 -92.926957 -109.674803 -91.047345 1.978101 -88.314083 -49.562426 76.758530 -69.462512 -84.962117 121.999225 -24.262957 -144.195007 -148.958471 93.774992 96.256446 6.402622 61.789555 11.815170 -35.425165 -179.006513 -0.706726 31.041529 -86.225008 -83.743554 11.329469 -35.065082 -8.004968 -21.023737 157.568732 9.015330
0.102467 -0.222178 -0.086779 0.000000 0.000000 0.000000 166.281079 -46.573336 -165.537849 166.281079 -46.573336 -165.537849 0.000000 0.000000 0.000000 106.377407 -17.779550 -132.504520 87.081835 70.845396 88.985608 50.510321 55.149740 60.153178 77.041844 -44.634665 -76.881249 109.287464 -62.079236 -100.506206 -92.918165 -109.154604 -91.014392 4.569954 -86.420376 -51.951410 80.735332 -69.695671 -86.546097 123.959066 -24.559457 -145.841301 -156.763368 93.031450 97.031513 3.646901 71.286106 10.655695 -35.987080 176.424152 2.598368 23.236632 -86.968550 -82.968487 8.542746 -43.563803 -8.130590 -22.338250 156.362763 10.195109
0.101833 -0.222800 -0.084369 0.000000 0.000000 0.000000 168.667871 -51.564165 -165.827893 168.667871 -51.564165 -165.827893 0.000000 0.000000 0.000000 108.556798 -18.708577 -134.749338 85.793991 70.729629 88.527195 52.481368 57.154350 63.632024 88.826875 -42.843760 -88.735108 126.258756 -62.358122 -111.013245 -94.206009 -109.270371 -91.472805 5.817642 -85.664795 -53.349265 82.292518 -68.786629 -86.992982 126.715548 -25.538054 -147.354629 -163.358745 92.280907 97.590392 0.849480 85.126735 9.865445 -41.938772 173.631807 5.726172 16.641255 -87.719093 -82.409608 8.069949 -45.466112 -8.200543 -22.684589 154.463557 11.293344
0.101287 -0.224172 -0.100264 0.000000 0.000000 0.000000 172.059367 -60.987870 -165.882310 172.059367 -60.987870 -165.882310 0.000000 0.000000 0.000000 109.867963 -19.921331 -134.916608 87.012829 69.972163 88.910258 50.268374 66.034945 69.723548 78.953214 -39.313189 -76.590445 123.967730 -62.311777 -109.469428 -92.987171 -110.027837 -91.089742 6.108497 -85.684476 -54.811032 80.142135 -68.403618 -86.064947 128.009720 -26.761079 -147.168741 -178.503422 90.210465 98.003309 2.093647 74.336420 7.428028 -49.375136 170.739846 10.761158 1.496578 -89.789535 -81.996691 7.446811 -48.341006 -8.357833 -22.871848 154.707363 11.273315
0.102869 -0.225455 -0.121574 0.000000 0.000000 0.000000 174.084868 -67.834808 -165.730905 174.084868 -67.834808 -165.730905 0.000000 0.000000 0.000000 110.208343 -21.165595 -133.552123 87.991409 68.492564 89.208220 40.770573 75.528024 73.336635 70.350863 -19.018647 -43.991024 117.568299 -58.438745 -107.781107 -92.008591 -111.507436 -90.791780 5.702929 -86.068749 -55.466540 78.124078 -68.232757 -85.200006 127.955337 -27.864283 -145.872099 153.961199 85.955979 98.233858 6.354685 29.645286 3.626661 -56.286522 167.215853 18.780811 -26.038801 -94.044021 -81.766142 7.217054 -50.086964 -8.608073 -21.835321 153.836162 11.136193
0.104117 -0.227417 -0.142338 0.000000 0.000000 0.000000 175.677862 -74.081630 -165.157800 175.677862 -74.081630 -165.157800 0.000000 0.000000 0.000000 109.696921 -21.355201 -132.476988 89.557013 66.752765 89.809700 -36.428813 96.639334 81.037444 -24.792232 145.752598 17.456595 103.998817 -74.601154 -93.928045 -90.442987 -113.247235 -90.190300 0.443683 -89.704618 -56.346611 71.657996 -72.759294 -84.125825 131.365075 -29.982095 -146.766883 135.178225 81.550434 98.501529 10.985870 -7.364021 -1.437158 -60.582661 162.738431 28.857678 -44.821775 -98.449566 -81.498471 7.083749 -52.623690 -9.239704 -21.161114 152.691370 11.302653
0.105379 -0.230000 -0.148180 0.000000 0.000000 0.000000 175.619450 -74.708428 -164.348177 175.619450 -74.708428 -164.348177 0.000000 0.000000 0.000000 109.117029 -20.706810 -132.519502 90.524488 65.226432 90.242059 -64.675833 103.902816 83.319199 -38.387211 141.339766 32.366161 23.603549 -89.531634 -88.928235 -89.475512 -114.773568 -89.757941 -3.741227 -92.410876 -57.223654 65.985452 -76.113438 -83.714359 134.131930 -30.299249 -148.938807 126.846132 78.291515 98.827467 13.918041 -19.837712 -5.108723 -62.903493 159.547131 36.088781 -53.153868 -101.708485 -81.172533 8.448367 -50.692530 -10.282746 -19.764178 149.636219 11.887449
